<?xml version="1.0" encoding="utf-8"?>
<svg viewBox="26.244 16.856 428.338 246.66" xmlns="http://www.w3.org/2000/svg">
  <defs>
    <linearGradient id="paint0_linear_5_771" x1="457.902" y1="504.939" x2="674.205" y2="504.939" gradientUnits="userSpaceOnUse">
      <stop stop-color="#F1A747"/>
      <stop offset="1" stop-color="#EF3565" stop-opacity="0.88"/>
    </linearGradient>
    <linearGradient id="paint1_linear_5_771" x1="452.54" y1="387.247" x2="242.813" y2="411.726" gradientUnits="userSpaceOnUse">
      <stop stop-color="#EF3565"/>
      <stop offset="0.901" stop-color="#F1A747"/>
    </linearGradient>
  </defs>
  <path d="M517.562 360.056H498.826L496.925 382.988H513.697L511.795 405.921H495.023L490.829 456.512H463.783L473.769 336.073H519.551L517.562 360.056Z" fill="#F9F9F9" transform="matrix(1, 0, 0, 1, -228.756149, -237.1436)"/>
  <path d="M546.734 456.512H519.688L529.674 336.073H556.72L546.734 456.512Z" fill="#F9F9F9" transform="matrix(1, 0, 0, 1, -228.756149, -237.1436)"/>
  <path d="M617.446 456.512H592.364L595.979 412.923C596.337 408.605 596.07 405.746 595.179 404.345C594.288 402.945 592.13 402.245 588.705 402.245L584.205 456.512H557.159L567.146 336.073H586.335C602.25 336.073 612.272 337.299 616.4 339.749C623.213 343.834 625.986 353.521 624.718 368.809C623.964 377.912 622.655 383.98 620.791 387.015C618.577 390.633 614.264 392.85 607.85 393.667C614.132 395.651 618.066 398.627 619.65 402.595C620.9 405.746 621.162 411.698 620.436 420.45L617.446 456.512ZM599.317 372.66L599.869 366.008C600.13 362.857 599.961 360.64 599.363 359.356C598.501 357.605 596.609 356.73 593.688 356.73H592.479L590.273 383.338C593.798 383.338 596.068 382.697 597.081 381.413C598.204 380.012 598.95 377.095 599.317 372.66Z" fill="#F9F9F9" transform="matrix(1, 0, 0, 1, -228.756149, -237.1436)"/>
  <path d="M675.013 456.512H628.325L638.312 336.073H683.338L681.349 360.056H663.369L661.468 382.988H678.39L676.489 405.921H659.566L657.36 432.529H677.002L675.013 456.512Z" fill="#F9F9F9" transform="matrix(1, 0, 0, 1, -228.756149, -237.1436)"/>
  <path d="M462.683 464H675L461 483L462.683 464Z" fill="url(#paint0_linear_5_771)" transform="matrix(1, 0, 0, 1, -228.756149, -237.1436)"/>
  <path d="M446.51 420.634C438.985 471.995 390.069 507.169 338.69 499.647C287.311 492.125 249.251 443.028 255.717 392.655C261.226 349.731 291.528 318.153 315.937 308.832C317.974 316.189 321.787 326.296 327.434 335.109C331.425 287.777 360.476 263.766 384.938 254C366.861 320.614 456.928 349.522 446.51 420.634Z" fill="url(#paint1_linear_5_771)" transform="matrix(1, 0, 0, 1, -228.756149, -237.1436)"/>
</svg>